{"title":"Wadjda.2012.DVDRiP.x264.AC3(5.1).mkv.Zen_Bud","uid":9349486,"size":2760876260,"categoryP":"video","categoryS":"movies","magnet":"?xt=urn:btih:e7bd55e743f2f84ce13178124e1fe807642a7b17&amp;dn=Wadjda.2012.DVDRiP.x264.AC3%285.1%29.mkv.Zen_Bud&amp;tr=udp%3A%2F%2Ftracker.openbittorrent.com%3A80&amp;tr=udp%3A%2F%2Fopen.demonii.com%3A1337&amp;tr=udp%3A%2F%2Ftracker.coppersurfer.tk%3A6969&amp;tr=udp%3A%2F%2Fexodus.desync.com%3A6969","seeders":1,"leechers":0,"uploader":"Zen_Bud","files":1,"time":1387095770,"description":"\n\n           Wadjda.2012.DVDRiP.x264.AC3(5.1).mkv.Zen_Bud.mkv\n____________________________________________________________________________\n\n                        HARDCoDED ENG _SUB !!\n____________________________________________________________________________\n\n\t\t\t \nFormat                                   : Matroska\nFormat version                           : Version 2\nFile size                                : 2.57 GiB\nDuration                                 : 1h 33mn\nOverall bit rate                         : 3 953 Kbps\n\nVideo\nFormat/Info                              : Advanced Video Codec\nFormat profile                           : &lt;a class=&quot;__cf_email__&quot; href=&quot;/cdn-cgi/l/email-protection&quot; data-cfemail=&quot;7a32131d123a3649544a&quot;&gt;[email&amp;#160;protected]&lt;/a&gt;&lt;script data-cfhash='f9e31' type=&quot;text/javascript&quot;&gt;\n/* &lt;![CDATA[ */!function(){try{var t=&quot;currentScript&quot;in document?document.currentScript:function(){for(var t=document.getElementsByTagName(&quot;script&quot;),e=t.length;e--;)if(t[e].getAttribute(&quot;data-cfhash&quot;))return t[e]}();if(t&amp;&amp;t.previousSibling){var e,r,n,i,c=t.previousSibling,a=c.getAttribute(&quot;data-cfemail&quot;);if(a){for(e=&quot;&quot;,r=parseInt(a.substr(0,2),16),n=2;a.length-n;n+=2)i=parseInt(a.substr(n,2),16)^r,e+=String.fromCharCode(i);e=document.createTextNode(e),c.parentNode.replaceChild(e,c)}t.parentNode.removeChild(t);}}catch(u){}}()/* ]]&gt; */&lt;/script&gt;\nFormat settings, CABAC                   : Yes\nFormat settings, ReFrames                : 4 frames\nDuration                                 : 1h 33mn\nBit rate                                 : 3 500 Kbps\nWidth                                    : 720 pixels\nHeight                                   : 576 pixels\nDisplay aspect ratio                     : 16:9\nFrame rate mode                          : Constant\nFrame rate                               : 25.000 fps\nStandard                                 : PAL\nColor space                              : YUV\nChroma subsampling                       : 4:2:0\nBit depth                                : 8 bits\nScan type                                : Progressive\nBits/(Pixel*Frame)                       : 0.338\nStream size                              : 2.23 GiB (87%)\nWriting library                          : x264 core 130 r2273 b3065e6\nColor primaries                          : BT.601 PAL\nTransfer characteristics                 : BT.709\nMatrix coefficients                      : BT.601\n\nAudio\nCodec ID                                 : A_AC3\nDuration                                 : 1h 33mn\nBit rate                                 : 448 Kbps\nChannel(s)                               : 6 channels\nChannel positions                        : Front: L C R, Side: L R, LFE\nSampling rate                            : 48.0 KHz\nBit depth                                : 16 bits\nCompression mode                         : Lossy\nStream size                              : 298 MiB (11%)\nLanguage                                 : Arabic\n____________________________________________________________________________\n\n                        HARDCoDED ENG _SUB !!\n____________________________________________________________________________\n\nAn enterprising Saudi girl signs on for her school's Koran recitation competition \nas a way to raise the remaining funds she needs in order to buy the green \nbicycle that has captured her interest. \n &lt;a href=&quot;\nhttp://www.imdb.com/title/tt2258858/&quot; rel=&quot;nofollow&quot; target=&quot;_NEW&quot;&gt;\nhttp://www.imdb.com/title/tt2258858/&lt;/a&gt;\n","torrent":{"xt":"urn:btih:e7bd55e743f2f84ce13178124e1fe807642a7b17","amp;dn":"Wadjda.2012.DVDRiP.x264.AC3%285.1%29.mkv.Zen_Bud","amp;tr":["udp%3A%2F%2Ftracker.openbittorrent.com%3A80","udp%3A%2F%2Fopen.demonii.com%3A1337","udp%3A%2F%2Ftracker.coppersurfer.tk%3A6969","udp%3A%2F%2Fexodus.desync.com%3A6969"],"infoHash":"e7bd55e743f2f84ce13178124e1fe807642a7b17","infoHashBuffer":{"type":"Buffer","data":[231,189,85,231,67,242,248,76,225,49,120,18,78,31,232,7,100,42,123,23]},"announce":[],"urlList":[]}}